<svg id="Layer_1" data-name="Layer 1" xmlns="http://www.w3.org/2000/svg" viewBox="0 0 174.68 135.2"><defs><style>.cls-1{fill:#ff4d00;stroke:#fff;stroke-linecap:round;stroke-linejoin:round;}</style></defs><title>ICO_Oyster</title><path class="cls-1" d="M377.15,152.21c-.75.07-1.46.13-2.08.14-2.23.05-16.06,1.88-17.1.55-3.76-4.86-8.53-10.21-14.89-10-2.37.08-4.67,1-7,1-6.69.14-12.61-6.28-19.07-4.49-3.57,1-7,4.4-10.32,3-2.15-.91-3-3.43-4.77-4.88s-5.76-.06-4.61,1.9c-4.5.75-8.13-3.09-12.09-5.18-6.14-3.23-13.92-2.23-20.41.52s-12.12,7.07-18.18,10.64c-7.76,4.58-16.82,8.49-20.87,16.32-2.31,4.46-2.95,10.11-7.16,13-1.7,1.18-4,1.91-4.8,3.75a6.43,6.43,0,0,0,0,4.09l6.4,29.16a18.6,18.6,0,0,0,1.45,4.63,25.72,25.72,0,0,0,3.2,4.27c6.91,8.36,10.14,19.32,18,26.88,6.64,6.39,15.86,9.62,24.95,12.09A221.4,221.4,0,0,0,300.87,266a35.74,35.74,0,0,0,10.63.07c5.8-1.08,10.73-4.66,16-7.19,3.7-1.75,7.64-3,11.27-4.9,9.44-4.89,16.09-13.51,22.4-21.85,6.84-9,13.77-18.23,17.6-28.73a95.71,95.71,0,0,0,4.12-17.4q1.38-8.42,2.36-16.87c.38-3.27,2.94-12.15,1.21-15-1.62-2.66-5.94-2.19-9.35-1.9" transform="translate(-212.92 -131.71)"/></svg>