<svg id="Layer_1" data-name="Layer 1" xmlns="http://www.w3.org/2000/svg" viewBox="0 0 175.53 223.51"><defs><style>.cls-1{fill:#ff4d00;}</style></defs><title>ICO_Hand</title><path class="cls-1" d="M275.66,178.23c1.95-6.85,3.62-9.95,0-15.43-4.15-6.22-13.9-19.63-18.84-27.58a43.34,43.34,0,0,1-3.86-37.61c1.1-2.89,2.5-6.07,5-8a8.44,8.44,0,0,1,8.63-1.32c4.83,2.29,3.9,8.12,5,13.37,1.95,9.8,9.57,16.64,16,24.25,5.64,6.64,10.44,14.55,17.63,19.45,3.5,2.36,7.33,4.29,10.68,6.88,7.87,6.05,12.56,15.23,18.71,23.05,4.24,5.43,8,10.79,12.28,16.21,8,10.17,14.49,25.42,36.47,33.07-4.24-1.31-13.42,16.38-20.51,39.48-6.67,21.81-9.11,40.65-5.8,43.79q-7-2.62-14-5.19a25.83,25.83,0,0,0-7.62-1.94,22.57,22.57,0,0,0-6.62.92c-9.93,2.59-19.53,6.91-29.76,7.46-9.55.52-22.09-2-26.23-.88a106.84,106.84,0,0,1-11.69,2.56c-5.91.95-17.65,1.14-19.1-13.87s-9.84-13.2-13.75-23.44c-3.81-9.95,2.65-10.62,0-16.82-3.22-7.7-8.23-5-12.12-12.28C210,233,223.16,230.27,221,226c-2.45-4.88-18.51-10.77-7-23.39,1.84-2,7.07-3.57,9.72-4.21,6.84-1.65,13.13-4.54,20-6.2,9.31-3.5,17.19-6.23,22.57-9,3-1.57,6.33-3.13,9.43-4.94" transform="translate(-209.88 -87.66)"/><path class="cls-1" d="M357,307.89c-3.31-3.15-.87-22,5.8-43.8,7.09-23.1,16.27-40.78,20.51-39.48s1.93,21.08-5.16,44.19-16.24,40.78-20.49,39.5a1.78,1.78,0,0,1-.66-.41" transform="translate(-209.88 -87.66)"/><path class="cls-1" d="M283.68,172.47a34.69,34.69,0,0,1-7.88,5.88c-3.08,1.8-6.33,3.35-9.35,4.9-5.35,2.74-13.16,5.46-22.4,8.95-6.79,1.63-13,4.52-19.81,6.16-2.64.63-7.83,2.17-9.66,4.18-11.4,12.55,4.54,18.4,7,23.26,2.14,4.28-10.9,7-4.83,18.33,3.87,7.21,8.84,4.56,12,12.21,2.61,6.17-3.8,6.83,0,16.73,3.88,10.18,12.2,8.36,13.65,23.31s13.1,14.73,19,13.8A105.36,105.36,0,0,0,273,307.63c4.11-1.08,16.55,1.39,26,.89,10.16-.55,19.69-4.85,29.54-7.42a22.28,22.28,0,0,1,6.57-.91,25.27,25.27,0,0,1,7.57,1.93c4.62,1.71,9.23,3.41,13.87,5.16m26.1-82.8c-21.82-7.61-28.27-22.78-36.2-32.89-4.25-5.38-8-10.71-12.2-16.12-6.11-7.78-10.76-16.91-18.58-22.93-3.32-2.56-7.12-4.48-10.6-6.84-7.14-4.87-11.9-12.74-17.5-19.33-6.43-7.57-14-14.38-15.93-24.13-1.06-5.22-.15-11-4.94-13.29a8.36,8.36,0,0,0-8.57,1.31c-2.42,1.89-3.81,5-4.91,7.92a43.18,43.18,0,0,0,3.84,37.4c4.91,7.9,14.59,21.24,18.7,27.42,3.63,5.46,2,8.54,0,15.35" transform="translate(-209.88 -87.66)"/><path class="cls-1" d="M357,307.89c-3.31-3.15-.87-22,5.8-43.8,7.09-23.1,16.27-40.78,20.51-39.48s1.93,21.08-5.16,44.19-16.24,40.78-20.49,39.5A1.78,1.78,0,0,1,357,307.89Z" transform="translate(-209.88 -87.66)"/></svg>